<svg xmlns="http://www.w3.org/2000/svg" viewBox="0 0 70 52" width="60" height="45">
	<style>
		tspan { white-space:pre }
		.shp0 { fill: currentColor } 
	</style>
	<g id="Layer 1">
		<g id="&lt;Group&gt;">
			<path id="&lt;Path&gt;" class="shp0" d="M37 6C37 7.1 36.53 8 35.94 8L1.08 8C0.49 8 0.02 7.1 0.02 6L0.02 2C0.02 0.9 0.49 0 1.08 0L35.94 0C36.53 0 37 0.9 37 2L37 6Z" />
			<path id="&lt;Path&gt;" class="shp0" d="M70.02 28C70.02 29.1 69.13 30 68.02 30L2.02 30C0.92 30 0.02 29.1 0.02 28L0.02 24C0.02 22.9 0.92 22 2.02 22L68.02 22C69.13 22 70.02 22.9 70.02 24L70.02 28Z" />
			<path id="&lt;Path&gt;" class="shp0" d="M70.02 50C70.02 51.1 69.59 52 69.05 52L36.97 52C36.44 52 36 51.1 36 50L36 46C36 44.9 36.44 44 36.97 44L69.05 44C69.59 44 70.02 44.9 70.02 46L70.02 50Z" />
		</g>
	</g>
</svg>